<?xml version="1.0" encoding="UTF-8"?>
<svg id="Layer_1" data-name="Layer 1" xmlns="http://www.w3.org/2000/svg" xmlns:xlink="http://www.w3.org/1999/xlink" viewBox="0 0 486.32 431.64">
  <defs>
    <style>
      .cls-1 {
        fill: url(#linear-gradient-3);
      }

      .cls-1, .cls-2, .cls-3 {
        stroke: #fff;
        stroke-miterlimit: 10;
        stroke-width: 5px;
      }

      .cls-2 {
        fill: url(#linear-gradient);
      }

      .cls-3 {
        fill: url(#linear-gradient-2);
      }
    </style>
    <linearGradient id="linear-gradient" x1="2.54" y1="322.56" x2="399.35" y2="322.56" gradientUnits="userSpaceOnUse">
      <stop offset="0" stop-color="#73ccd6"/>
      <stop offset="1" stop-color="#6fc388"/>
    </linearGradient>
    <linearGradient id="linear-gradient-2" x1="2.53" y1="187.24" x2="483.82" y2="187.24" gradientUnits="userSpaceOnUse">
      <stop offset="0" stop-color="#fdb719"/>
      <stop offset="1" stop-color="#d24b27"/>
    </linearGradient>
    <linearGradient id="linear-gradient-3" x1="243.48" y1="140.52" x2="242.86" y2="296.59" gradientUnits="userSpaceOnUse">
      <stop offset="0" stop-color="#fef16d"/>
      <stop offset="1" stop-color="#f99d1e"/>
    </linearGradient>
  </defs>
  <path class="cls-2" d="m399.35,371.99l-22.4,38.79c-6.56,11.36-18.69,18.36-31.83,18.36h-203.89c-13.14,0-25.26-7-31.83-18.36L7.46,234.19c-3.18-5.52-4.83-11.66-4.93-17.81,54.89-.55,108.05-.51,162.62.05.09,3.48,1.04,6.92,2.84,10.02l28.38,49.17c3.8,6.58,10.82,10.63,18.42,10.63h56.76c7.61,0,14.62-4.05,18.42-10.63l4.75-8.24c35.04,35.04,69.36,69.36,104.61,104.61Z"/>
  <path class="cls-3" d="m478.89,234.19l-79.55,137.79c-35.25-35.25-69.57-69.57-104.61-104.61l-4.75,8.24c-3.8,6.58-10.82,10.63-18.42,10.63h-56.76c-7.61,0-14.62-4.05-18.42-10.63l-28.38-49.17c-1.79-3.1-2.74-6.55-2.84-10.02-54.56-.56-107.73-.59-162.62-.05-.09-6.53,1.54-13.08,4.93-18.94L109.41,20.86c6.56-11.36,18.69-18.36,31.83-18.36h203.89c13.14,0,25.26,7,31.83,18.36l101.94,176.58c6.56,11.38,6.56,25.37,0,36.75Z"/>
  <path class="cls-1" d="m318.36,226.45l-23.63,40.93-4.75,8.24c-3.8,6.58-10.82,10.63-18.42,10.63h-56.76c-7.61,0-14.62-4.05-18.42-10.63l-28.38-49.17c-1.79-3.1-2.74-6.55-2.84-10.02-.12-3.87.83-7.76,2.84-11.24l28.38-49.17c3.8-6.58,10.82-10.63,18.42-10.63h56.76c7.61,0,14.62,4.05,18.42,10.63l28.38,49.17c3.8,6.58,3.8,14.68,0,21.26Z"/>
</svg>